<svg width="237.000000" height="227.000000" viewBox="0 0 237 227" fill="none"
     xmlns="http://www.w3.org/2000/svg">
    <desc>
        Created with Pixso.
    </desc>
    <defs/>
    <path id="Vector"
          d="M70.65 187.04C68.93 185.8 67.65 184.06 66.99 182.05C66.33 180.04 66.32 177.88 66.97 175.87L69.08 167.21C69.45 165.69 70.15 164.27 71.11 163.03C72.08 161.79 73.3 160.77 74.68 160.03L81.59 156.42C85.86 154.22 89.26 150.67 91.27 146.34C93.27 142 93.77 137.12 92.68 132.48L92.58 132.04C91.31 126.84 88.12 122.3 83.65 119.3C79.17 116.31 73.74 115.08 68.4 115.86L60.67 116.96C59.1 117.18 57.5 117.07 55.97 116.64C54.45 116.2 53.03 115.45 51.82 114.44L44.99 108.67C43.3 107.41 42.04 105.66 41.39 103.66C40.74 101.66 40.74 99.5 41.37 97.5C42.83 93.05 42.79 88.26 41.26 83.84C39.73 79.43 36.79 75.63 32.89 73.01C28.99 70.4 24.34 69.12 19.65 69.37C14.95 69.62 10.46 71.38 6.87 74.38C3.27 77.39 0.75 81.48 -0.3 86.03C-1.36 90.59 -0.89 95.35 1.03 99.62C2.95 103.89 6.21 107.41 10.33 109.67C14.44 111.93 19.19 112.8 23.84 112.14C24.6 112.02 25.34 111.87 26.08 111.69L28.09 111.31C29.75 110.98 31.48 111.03 33.12 111.46C34.76 111.89 36.29 112.68 37.58 113.78L46.87 121.76C48.29 123 49.37 124.57 50.02 126.33C50.67 128.09 50.86 129.98 50.58 131.84L50.36 133.24L50.16 134.47L50.16 134.58C49.86 137.14 50.02 139.74 50.65 142.25C50.65 142.39 50.65 142.53 50.76 142.66L50.76 142.82C51.65 146.22 53.37 149.34 55.77 151.92C56.06 152.22 56.35 152.51 56.66 152.8L57.67 153.8C59 155.15 59.98 156.81 60.49 158.63C61 160.45 61.04 162.37 60.61 164.21L57.78 176.04C57.39 177.69 56.63 179.22 55.55 180.53C54.47 181.83 53.11 182.88 51.56 183.58L49.83 184.38C49.12 184.65 48.43 184.97 47.75 185.32C44.59 186.98 41.9 189.39 39.91 192.34C36.63 197.02 35.35 202.8 36.36 208.41C37.37 214.02 40.58 219 45.28 222.26C49.98 225.52 55.8 226.79 61.45 225.79C67.09 224.79 72.11 221.6 75.39 216.93C77.33 214.28 78.64 211.23 79.2 208.01C79.35 207.28 79.45 206.54 79.5 205.8L79.73 203.92C79.6 200.61 78.72 197.37 77.15 194.44C75.57 191.52 73.35 188.99 70.65 187.04Z"
          fill="#C8C9CA" fill-opacity="1.000000" fill-rule="nonzero"/>
    <path id="Vector"
          d="M235.9 84.24C234.77 80.78 232.76 77.66 230.07 75.17C227.38 72.69 224.11 70.92 220.55 70.04C216.99 69.16 213.26 69.19 209.71 70.14C206.17 71.08 202.92 72.9 200.28 75.43C199.72 75.94 199.18 76.47 198.67 77.03L197.37 78.43C196.22 79.67 194.8 80.64 193.22 81.25C191.64 81.87 189.94 82.12 188.25 81.99L176.03 81C174.13 80.85 172.31 80.21 170.72 79.16C169.14 78.12 167.85 76.68 166.97 75L166.33 73.74C166.13 73.36 165.96 72.99 165.75 72.64L165.75 72.53C164.48 70.27 162.81 68.26 160.82 66.6L160.5 66.35L160.35 66.22C157.62 64 154.38 62.49 150.92 61.8L150.79 61.8L149.55 61.59L148.12 61.48C146.24 61.17 144.47 60.4 142.98 59.23C141.48 58.06 140.31 56.53 139.57 54.79L134.85 43.61C134.2 42.05 133.91 40.37 134.01 38.68C134.11 36.99 134.6 35.35 135.43 33.88L136.38 32.28C136.78 31.64 137.15 30.99 137.49 30.32C138.94 27.38 139.69 24.15 139.69 20.88C139.53 15.28 137.18 9.96 133.14 6.05C129.1 2.15 123.69 -0.04 118.05 -0.04C112.41 -0.04 107 2.15 102.96 6.05C98.91 9.96 96.57 15.28 96.41 20.88C96.41 24.15 97.16 27.38 98.62 30.32C98.96 30.99 99.33 31.64 99.72 32.28L100.67 33.88C101.5 35.35 101.99 36.99 102.09 38.68C102.19 40.37 101.9 42.05 101.25 43.61L96.53 54.79C95.79 56.52 94.63 58.05 93.15 59.22C91.66 60.38 89.91 61.16 88.04 61.48L86.64 61.7L85.39 61.91L85.28 61.91C82.72 62.41 80.28 63.37 78.08 64.75L77.76 64.96C77.69 64.99 77.63 65.02 77.58 65.07C74.6 66.97 72.14 69.58 70.43 72.65L70.43 72.77C70.24 73.12 70.05 73.5 69.87 73.87C61.1 92.58 80.3 102.96 82.72 103.59C85.69 104.48 88.8 104.76 91.88 104.41C94.95 104.06 97.92 103.09 100.61 101.55L101.01 101.3C105.59 98.47 108.94 94.05 110.4 88.9C111.86 83.75 111.33 78.24 108.92 73.45L105.41 66.43C104.71 65.01 104.32 63.46 104.27 61.89C104.21 60.31 104.49 58.74 105.09 57.28L108.43 49.04C109.11 47.05 110.4 45.32 112.11 44.1C113.83 42.87 115.9 42.21 118.01 42.21C120.12 42.21 122.19 42.87 123.91 44.1C125.62 45.32 126.91 47.05 127.59 49.04L130.99 57.28C131.6 58.74 131.88 60.31 131.83 61.89C131.77 63.46 131.39 65.01 130.69 66.43L127.23 73.39C125.08 77.67 124.43 82.55 125.39 87.24C126.35 91.93 128.87 96.16 132.54 99.27L132.87 99.57C135.68 101.92 139.05 103.52 142.65 104.22C146.26 104.92 149.98 104.69 153.47 103.56C156.67 102.55 159.59 100.79 161.97 98.44L167.58 93.03C168.71 91.91 170.07 91.05 171.56 90.5C173.06 89.95 174.65 89.72 176.24 89.83L185.18 90.5C187.29 90.53 189.34 91.21 191.05 92.45C192.76 93.69 194.03 95.42 194.7 97.42C196.07 101.6 199.52 109.63 212.17 112.04C215.81 112.55 219.51 112.13 222.94 110.83C226.37 109.53 229.41 107.38 231.77 104.58C234.13 101.79 235.74 98.45 236.44 94.87C237.15 91.29 236.92 87.59 235.79 84.12L235.9 84.24Z"
          fill="#EC1D35" fill-opacity="1.000000" fill-rule="nonzero"/>
    <path id="Vector"
          d="M157.81 116.69C154.88 117.69 152.19 119.28 149.91 121.37C147.62 123.45 145.8 125.99 144.55 128.8C144.55 128.95 144.42 129.09 144.37 129.23C142.36 134.2 142.28 139.72 144.14 144.74C146.01 149.76 149.69 153.91 154.46 156.37L161.39 159.98C162.79 160.72 164.02 161.75 165 162.99C165.97 164.23 166.67 165.67 167.05 167.2L169.17 175.85C169.82 177.86 169.81 180.02 169.15 182.02C168.49 184.03 167.21 185.77 165.49 187.01C163.78 188.25 161.71 188.92 159.59 188.92C157.47 188.92 155.4 188.26 153.68 187.03L146.04 182.37C144.69 181.54 143.53 180.45 142.63 179.15C141.73 177.85 141.12 176.38 140.84 174.83L139.52 167.18C138.74 162.46 136.39 158.14 132.85 154.89C129.31 151.65 124.78 149.68 119.98 149.29L119.52 149.29C114.14 148.9 108.81 150.52 104.58 153.84C100.34 157.15 97.5 161.91 96.62 167.2C93.57 185.4 110.04 191.32 116.42 192.14L117.01 192.14C120.53 192.34 124.06 191.67 127.26 190.2L127.37 190.2L128.5 189.65L129.77 189.01C131.47 188.16 133.36 187.75 135.26 187.82C137.16 187.89 139.02 188.44 140.64 189.42L151.11 195.81C152.56 196.68 153.79 197.88 154.71 199.3C155.62 200.72 156.2 202.34 156.39 204.01L156.62 205.9C156.67 206.65 156.76 207.4 156.89 208.15C157.52 211.75 159.06 215.13 161.37 217.97C163.67 220.81 166.67 223.02 170.08 224.4C173.48 225.77 177.19 226.26 180.84 225.82C184.48 225.38 187.96 224.02 190.93 221.87C193.91 219.73 196.28 216.86 197.84 213.55C199.39 210.24 200.07 206.59 199.81 202.95C199.55 199.31 198.36 195.79 196.35 192.73C194.34 189.67 191.59 187.17 188.34 185.46C187.66 185.11 186.97 184.81 186.27 184.52L184.53 183.72C182.98 183.02 181.62 181.98 180.54 180.68C179.46 179.38 178.7 177.84 178.31 176.2L175.48 164.36C175.05 162.52 175.09 160.6 175.6 158.78C176.12 156.96 177.09 155.29 178.42 153.95L179.43 152.94C179.74 152.65 180.03 152.37 180.32 152.06L180.32 151.97C182.09 150.08 183.49 147.88 184.46 145.49L184.61 145.12L184.61 144.94C185.89 141.67 186.34 138.14 185.93 134.66L185.93 134.53C183.07 113.73 162.43 114.98 157.81 116.69Z"
          fill="#402FFF" fill-opacity="1.000000" fill-rule="nonzero"/>
</svg>
