<svg width="14.000000" height="14.000000" viewBox="0 0 14 14" fill="none"
     xmlns="http://www.w3.org/2000/svg">
    <desc>
        Created with Pixso.
    </desc>
    <defs/>
    <path d="M8.41 7.82C8.13 7.91 7.91 8.13 7.82 8.41L7.48 9.42C7.19 10.28 5.97 10.27 5.7 9.4L4.56 5.73C4.34 5.01 5.01 4.33 5.73 4.56L9.4 5.69C10.27 5.97 10.28 7.19 9.42 7.48L8.41 7.82Z"
          stroke="#402FFF" stroke-opacity="1.000000" stroke-width="1.000000" stroke-linejoin="round"/>
    <path d="M7 12.83C3.77 12.83 1.16 10.22 1.16 7C1.16 3.77 3.77 1.16 7 1.16C10.22 1.16 12.83 3.77 12.83 7C12.83 10.22 10.22 12.83 7 12.83Z"
          stroke="#402FFF" stroke-opacity="1.000000" stroke-width="1.000000" stroke-linejoin="round"/>
    <g opacity="0.000000"/>
</svg>
