<svg width="18.000000" height="18.000000" viewBox="0 0 18 18" fill="none"
     xmlns="http://www.w3.org/2000/svg">
    <desc>
        Created with Pixso.
    </desc>
    <defs/>
    <path id="Vector"
          d="M16.29 14.56C16.16 14.83 15.99 15.09 15.78 15.33C15.41 15.73 15 16.02 14.55 16.21C14.1 16.4 13.61 16.5 13.08 16.5C12.32 16.5 11.5 16.32 10.64 15.95C9.78 15.58 8.91 15.09 8.06 14.46C7.2 13.83 6.38 13.14 5.6 12.36C4.83 11.58 4.13 10.77 3.5 9.91C2.89 9.06 2.39 8.2 2.03 7.35C1.67 6.5 1.5 5.68 1.5 4.9C1.5 4.39 1.59 3.9 1.77 3.45C1.95 3 2.23 2.58 2.63 2.2C3.11 1.73 3.63 1.5 4.19 1.5C4.4 1.5 4.61 1.54 4.8 1.63C4.99 1.72 5.16 1.85 5.3 2.05L7.04 4.5C7.17 4.69 7.27 4.86 7.34 5.03C7.41 5.19 7.44 5.34 7.44 5.48C7.44 5.66 7.39 5.84 7.28 6.02C7.19 6.19 7.05 6.37 6.87 6.55L6.3 7.14C6.21 7.22 6.17 7.32 6.17 7.44C6.17 7.5 6.18 7.56 6.2 7.62C6.22 7.67 6.24 7.72 6.26 7.77C6.39 8.01 6.63 8.34 6.96 8.72C7.29 9.12 7.65 9.51 8.04 9.91C8.45 10.31 8.84 10.68 9.24 11.01C9.63 11.34 9.95 11.57 10.2 11.7C10.24 11.72 10.29 11.74 10.34 11.76C10.4 11.79 10.46 11.79 10.53 11.79C10.65 11.79 10.75 11.75 10.83 11.67L11.4 11.1C11.59 10.92 11.77 10.77 11.94 10.68C12.12 10.58 12.29 10.53 12.48 10.53C12.62 10.53 12.77 10.56 12.93 10.62C13.1 10.69 13.27 10.79 13.46 10.92L15.94 12.68C16.14 12.81 16.27 12.97 16.35 13.16C16.43 13.35 16.47 13.53 16.47 13.74C16.47 14.01 16.41 14.29 16.29 14.56Z"
          stroke="#402FFF" stroke-opacity="1.000000" stroke-width="1.000000"/>
    <g opacity="0.000000"/>
</svg>
